# xmcd
#
# Track frame offsets:
# 150
# 9443
# 26537
# 44831
# 63871
# 71806
# 100708
# 119538
#
# Disc length: 1638 seconds
#
#
# Revision: 0
# Processed by: cddbd v1.4PL0 Copyright (c) Steve Scherf et al.
# Submitted via: FreeRIP 2.30 
#
DISCID=69066408
DTITLE=Tre Hardson - The Legend Of Phoenix
DYEAR=1900
DGENRE=Hip-Hop
TTITLE0=Live Interlude
TTITLE1=Dirty Minds
TTITLE2=It's Like This
TTITLE3=Devotion
TTITLE4=Phone Interlude
TTITLE5=Somethings Never Change
TTITLE6=Postcards 4 Princets
TTITLE7=Outro With Garth
EXTD=
EXTT0=
EXTT1=
EXTT2=
EXTT3=
EXTT4=
EXTT5=
EXTT6=
EXTT7=
PLAYORDER=
